<svg height="30pt" viewBox="0 0 512 512" width="512" xmlns="http://www.w3.org/2000/svg" xmlns:xlink="http://www.w3.org/1999/xlink">
    <linearGradient id="New_Gradient_Swatch_13" gradientUnits="userSpaceOnUse" x1="203.904" x2="308.096" y1="142.464" y2="38.272">
        <stop offset="0" stop-color="#d46669" />
        <stop offset="1" stop-color="#dd888a" />
    </linearGradient>
    <linearGradient id="New_Gradient_Swatch_22" gradientUnits="userSpaceOnUse" x1="236.201" x2="275.799" y1="107.799" y2="68.201">
        <stop offset=".011" stop-color="#dcdce3" />
        <stop offset="1" stop-color="#ededf1" />
    </linearGradient>
    <linearGradient id="New_Gradient_Swatch_8" gradientUnits="userSpaceOnUse" x1="58" x2="454" y1="538" y2="142">
        <stop offset=".011" stop-color="#fad46a" />
        <stop offset="1" stop-color="#fce6aa" />
    </linearGradient>
    <linearGradient id="New_Gradient_Swatch_3" gradientUnits="userSpaceOnUse" x1="34.759" x2="441.636" y1="613.891" y2="207.015">
        <stop offset=".011" stop-color="#606082" />
        <stop offset="1" stop-color="#83839e" />
    </linearGradient>
    <linearGradient id="New_Gradient_Swatch_11" gradientUnits="userSpaceOnUse" x1="410.443" x2="481.346" y1="348.245" y2="277.342">
        <stop offset=".011" stop-color="#60c6be" />
        <stop offset="1" stop-color="#80d1cb" />
    </linearGradient>
    <linearGradient id="New_Gradient_Swatch_11-2" x1="321.412" x2="362.378" xlink:href="#New_Gradient_Swatch_11" y1="220.586" y2="179.62" />
    <linearGradient id="New_Gradient_Swatch_11-3" x1="194.063" x2="253.937" xlink:href="#New_Gradient_Swatch_11" y1="335.318" y2="275.445" />
    <linearGradient id="New_Gradient_Swatch_11-4" x1="83.095" x2="172.905" xlink:href="#New_Gradient_Swatch_11" y1="470.977" y2="381.167" />
    <g id="_28-route" data-name="28-route">
        <g id="linear_color" data-name="linear color">
            <path d="m184 88a72 72 0 0 1 144 0c0 48-72 104-72 104s-72-56-72-104z" fill="url(#New_Gradient_Swatch_13)" />
            <circle cx="256" cy="88" fill="url(#New_Gradient_Swatch_22)" r="28" />
            <path d="m16 184h480v312h-480z" fill="url(#New_Gradient_Swatch_8)" />
            <path d="m327.208 274.489c-19.86-16.022-47.208-18.489-55.208-50.489-2.7-10.819-.734-37.414 0-40h-32c-.128.3-24 40-8 80 19.7 49.261 76.463 72.975 64.808 128.28-18.669 43.776-97.358 82.82-154.647 103.72h235.139c16.5-33.015 25.521-67.807 21.907-103.168-6.818-49.442-33.83-89.186-71.999-118.343z" fill="url(#New_Gradient_Swatch_3)" />
            <path d="m408 330.105c0-20.928 15.288-82.105 37.9-82.105s37.894 61.177 37.894 82.105a37.895 37.895 0 1 1 -75.789 0z" fill="url(#New_Gradient_Swatch_11)" />
            <path d="m320 210.105c0-12.092 8.833-47.438 21.895-47.438s21.894 35.346 21.894 47.438a21.895 21.895 0 1 1 -43.789 0z" fill="url(#New_Gradient_Swatch_11-2)" />
            <path d="m192 320c0-17.673 12.91-69.333 32-69.333s32 51.66 32 69.333a32 32 0 0 1 -64 0z" fill="url(#New_Gradient_Swatch_11-3)" />
            <path d="m80 448c0-26.51 19.364-104 48-104s48 77.49 48 104a48 48 0 0 1 -96 0z" fill="url(#New_Gradient_Swatch_11-4)" />
            <path d="m296 88a40 40 0 1 0 -40 40 40.045 40.045 0 0 0 40-40zm-56 0a16 16 0 1 1 16 16 16.019 16.019 0 0 1 -16-16z" />
            <path d="m496 484h-100.045c13.107-31.771 18.216-62.776 15.192-92.389-.013-.14-.03-.281-.049-.421a180.517 180.517 0 0 0 -9.789-38.729 49.882 49.882 0 0 0 94.48-22.356c0-11.354-3.853-33.232-11.22-53.076-10.104-27.229-23.117-41.029-38.669-41.029s-28.57 13.8-38.675 41.028c-7.371 19.846-11.225 41.723-11.225 53.077a49.726 49.726 0 0 0 2.164 14.531c-13.026-30.35-34.489-57.36-63.548-79.589-6.906-5.546-14.212-9.465-21.278-13.254-14.208-7.62-25.43-13.639-29.7-30.7-1.273-5.1-1.149-16.632-.715-25.095h26.734a76.222 76.222 0 0 0 -1.662 14.1 33.895 33.895 0 1 0 67.789 0 76.222 76.222 0 0 0 -1.662-14.1h121.878a12 12 0 0 0 0-24h-128a12.082 12.082 0 0 0 -1.311.075c-6.4-14.2-14.72-21.408-24.794-21.408-10.058 0-18.368 7.181-24.762 21.333h-21.7c21.877-22.968 44.567-54.017 44.567-83.998a84 84 0 0 0 -168 0c0 29.981 22.689 61.03 44.569 84h-200.569a12 12 0 0 0 0 24h205.49c-4.1 11.468-7.891 27.22-6.812 44.609-9.885 4.278-18.3 15.63-25.087 33.921-5.557 14.97-9.591 34.096-9.591 45.47a44 44 0 0 0 86.161 12.57c14.095 17.423 23.466 33.525 19.142 56.066-8.136 17.887-29.844 37.577-62.888 57.021a12 12 0 1 0 12.17 20.686c38.7-22.773 63.35-46.107 73.263-69.356a12.007 12.007 0 0 0 .7-2.232c8.424-39.974-13.417-65.474-34.54-90.134-3.353-3.914-6.8-7.945-10.1-12.01a169.674 169.674 0 0 0 -5.5-18.081q-8.13-21.9-19.289-30.471c-2.694-20.152 4.014-38.769 8.247-48.059h11.534c-.5 10.454-.386 23.5 1.462 30.91 6.838 27.373 25.325 37.29 41.638 46.033 6.42 3.443 12.484 6.7 17.681 10.887.082.066.165.132.249.2 38.082 29.092 61.374 67.209 67.369 110.235 2.847 28.325-3.052 58.482-17.535 89.739h-193.797a59.682 59.682 0 0 0 12.033-36.004c0-14.1-4.813-41.334-14.012-66.117-12.288-33.1-27.758-49.883-45.988-49.883s-33.7 16.783-45.988 49.883c-9.199 24.783-14.012 52.017-14.012 66.117a59.682 59.682 0 0 0 12.033 36h-64.033a12 12 0 0 0 0 24h480a12 12 0 0 0 0-24zm-66.28-198.62c7.744-20.863 14.835-25.38 16.18-25.38s8.43 4.517 16.174 25.38c6.084 16.391 9.72 35.612 9.72 44.725a25.895 25.895 0 1 1 -51.789 0c-.005-9.112 3.631-28.334 9.715-44.725zm-205.72 54.62a20.023 20.023 0 0 1 -20-20c0-6.728 2.521-21.146 7.194-34.619 5.567-16.048 10.931-21.618 12.806-22.617 1.875 1 7.239 6.569 12.806 22.617 4.673 13.473 7.194 27.891 7.194 34.619a20.023 20.023 0 0 1 -20 20zm117.9-163.51c1.528 2.274 3.656 6.359 5.807 13.043 2.654 8.247 4.087 16.755 4.087 20.572a9.895 9.895 0 1 1 -19.789 0c0-3.817 1.433-12.324 4.088-20.572 2.146-6.683 4.274-10.769 5.807-13.043zm-85.9-148.49a60.068 60.068 0 0 1 60 60c0 21.74-20.487 52.946-55.008 84h-9.984c-34.521-31.054-55.008-62.26-55.008-84a60.068 60.068 0 0 1 60-60zm-164 420c0-11.825 4.68-36.666 12.512-57.766 10.051-27.079 19.759-34.234 23.488-34.234s13.437 7.155 23.488 34.234c7.832 21.1 12.512 45.941 12.512 57.766a36 36 0 0 1 -72 0z" />
            <path d="m331.962 312.535a12 12 0 0 0 -17.934 15.949c2.579 2.9 4.859 5.617 6.97 8.3a12 12 0 1 0 18.872-14.828c-2.415-3.069-5.001-6.156-7.908-9.421z" />
            <path d="m302.5 465.063a12 12 0 0 0 16.905 1.487c3.258-2.732 6.355-5.494 9.2-8.211a12 12 0 1 0 -16.564-17.367c-2.48 2.365-5.191 4.783-8.057 7.185a12 12 0 0 0 -1.484 16.906z" />
            <path d="m348.861 409.156a11.985 11.985 0 0 0 13.851-9.805 90.97 90.97 0 0 0 1.265-13.254 12 12 0 0 0 -11.731-12.264h-.271a12 12 0 0 0 -11.993 11.733 66.781 66.781 0 0 1 -.926 9.743 12 12 0 0 0 9.805 13.847z" />
        </g>
    </g>
</svg>