<svg viewBox="0 0 496 496" xmlns="http://www.w3.org/2000/svg" style="width: 25%;margin: auto;">
  <style>
    path {
      stroke: black;
      stroke-width: 10px;
    }
  </style>
  <g>
    <g>
      <path d="m380.588 175.914-133.372.712-130.715 322.639v1.062h395.091v-1.062z" fill="none" />
      <path d="m380.588 175.914-66.542-164.241-66.83 164.953c20.01 9.425 42.357 14.707 65.942 14.707 24.172 0 47.042-5.548 67.43-15.419z" fill="#47caf0" />
    </g>
    <g>
      <path d="m194.019 261.886-97.944.523-96.075 237.138v.78h290.306v-.78z" fill="white" />
      <path d="m194.019 261.886-48.866-120.613-49.078 121.136c14.682 6.968 31.098 10.875 48.43 10.875 17.76 0 34.558-4.103 49.514-11.398z" fill="#47caf0" />
    </g>
    <path d="m0 87.327h50c16.569 0 30 13.431 30 30 0 16.569-13.431 30-30 30h-50z" fill="#47caf0" />
    <path d="m512 78.061h-22.667c-16.569 0-30 13.431-30 30 0 .042.003.083.003.125-15.319 1.349-27.336 14.206-27.336 29.876 0 16.569 13.431 30 30 30h50z" fill="#47caf0" />
  </g>
</svg>