<svg id="Capa_1" enable-background="new 0 0 489.995 489.995" height="30pt" viewBox="0 0 489.995 489.995" width="512" xmlns="http://www.w3.org/2000/svg">
    <g>
        <g>
            <g>
                <path d="m167.526 175.549c-2.574 0-5.081-1.326-6.477-3.707l-44.026-75.08c-2.095-3.573-.897-8.168 2.676-10.264s8.168-.897 10.264 2.676l44.026 75.08c2.095 3.573.897 8.168-2.676 10.264-1.192.699-2.498 1.031-3.787 1.031z" fill="#a44f3e" />
            </g>
        </g>
        <path d="m441.284 291.684c0 109.519-88.792 198.311-198.323 198.311-7.533 0-14.973-.418-22.297-1.244-99.033-11.079-176.025-95.081-176.025-197.067z" fill="#008b81" />
        <path d="m397.946 291.684c0 101.975-78.248 185.989-177.281 197.067-99.034-11.079-176.026-95.081-176.026-197.067z" fill="#01998d" />
        <path d="m441.286 291.688v.67c0 21.63-17.54 39.16-39.17 39.16h-53.88c-21.63 0-39.16-17.53-39.16-39.16 0 15.34-8.83 28.62-21.68 35.04-5.27 2.64-11.21 4.12-17.5 4.12h-53.87c-21.63 0-39.18-17.53-39.18-39.16 0 15.34-8.82 28.62-21.66 35.04-5.27 2.64-11.21 4.12-17.5 4.12h-53.88c-21.63 0-39.17-17.53-39.17-39.16v-.67l39.02-111.31c2.59-7.38 9.56-12.33 17.39-12.33h283.84c7.82 0 14.79 4.95 17.38 12.33z" fill="#fedba6" />
        <path d="m397.946 291.688v.67c0 21.63-17.53 39.16-39.16 39.16h-10.55c-21.63 0-39.16-17.53-39.16-39.16 0 15.34-8.83 28.62-21.68 35.04-5.27 2.64-11.21 4.12-17.5 4.12h-53.87c-21.63 0-39.18-17.53-39.18-39.16 0 15.34-8.82 28.62-21.66 35.04-5.27 2.64-11.21 4.12-17.5 4.12h-53.88c-21.63 0-39.17-17.53-39.17-39.16v-.67l39.02-111.31c2.59-7.38 9.56-12.33 17.39-12.33h240.5c7.82 0 14.8 4.95 17.38 12.33z" fill="#ffefd2" />
        <path d="m458.036 65.728-6.2 14.89c-2.57 6.16-9.63 9.08-15.79 6.51l-42.44-17.66c-10.5-4.37-22.56.61-26.93 11.12l-28.4 68.25-8 19.21h-43.64l8-19.21 39.81-95.7c10.18-24.45 38.23-36.01 62.67-25.84l54.4 22.63c6.16 2.56 9.08 9.64 6.52 15.8z" fill="#5de1c4" />
        <path d="m144.906 81.068-41.48 24.13c-5.48-9.43-17.57-12.62-27-7.14-24.85-42.71.38-84.53.91-85.41.01-.01.01-.01.01-.01s49.6-1.73 74.7 41.43c-9.43 5.48-12.62 17.58-7.14 27z" fill="#fef056" />
        <g fill="#fd4755">
            <path d="m77.336 12.648c-.53.88-25.76 42.7-.91 85.41-7.409 4.314-10.973 12.702-9.496 20.668.785 4.237-1.349 8.488-5.074 10.655l-8.593 5c-5.388 3.135-12.366.904-14.811-4.831-18.157-42.585-2.163-93.012 38.884-116.902z" />
            <path d="m195.079 51.885-8.59 4.998c-3.728 2.169-8.482 1.923-11.781-.855-6.202-5.223-15.253-6.274-22.663-1.96-25.1-43.16-74.7-41.43-74.7-41.43 41.048-23.871 92.807-12.848 120.855 23.984 3.776 4.96 2.268 12.128-3.121 15.263z" />
        </g>
    </g>
</svg>