<svg viewBox="0 0 496 496" xmlns="http://www.w3.org/2000/svg" style="width: 25%;margin: auto;">
  <path d="m0 280.027344h496v96h-496zm0 0" fill="none" />
  <path d="m496 344.027344h-496v-32h496zm0 0" fill="none" />
  <path d="m184 280.027344h128v96h-128zm0 0" fill="none" />
  <path d="m24 176.027344h144v104h-144zm0 0" fill="none" />
  <path d="m24 264.027344h144v16h-144zm0 0" fill="none" />
  <g fill="none">
    <path d="m8 144.027344h176v32h-176zm0 0" />
    <path d="m24 112.027344h144v32h-144zm0 0" />
    <path d="m48 80.027344h96v32h-96zm0 0" />
    <path d="m80 48.027344h32v32h-32zm0 0" />
  </g>
  <path d="m216 168.027344h256v112h-256zm0 0" fill="none" />
  <path d="m216 264.027344h256v16h-256zm0 0" fill="none" />
  <path d="m296 232.027344h96v48h-96zm0 0" fill="none" />
  <path d="m0 376.027344h496v120h-496zm0 0" fill="#47caf0" />
  <path d="m232 56.027344h224v112h-224zm0 0" fill="none" />
  <path d="m232 152.027344h224v16h-224zm0 0" fill="none" />
  <path d="m256 8.027344h176v48h-176zm0 0" fill="none" />
  <path d="m72 216.027344h48v64h-48zm0 0" fill="none" />
  <path d="m328 104.027344h32v64h-32zm0 0" fill="none" />
  <path d="m264 104.027344h32v64h-32zm0 0" fill="none" />
  <path d="m392 104.027344h32v64h-32zm0 0" fill="none" />
  <path d="m216 168.027344h256v32h-256zm0 0" fill="none" />
  <path d="m72 264.027344h48v16h-48zm0 0" fill="none" />
  <path d="m24 128.027344h144v16h-144zm0 0" fill="none" />
  <path d="m48 96.027344h96v16h-96zm0 0" fill="none" />
  <path d="m80 64.027344h32v16h-32zm0 0" fill="none" />
  <path d="m256 40.027344h176v16h-176zm0 0" fill="none" />
  <path d="m296 264.027344h96v16h-96zm0 0" fill="none" />
  <path d="m264 152.027344h32v16h-32zm0 0" fill="none" />
  <path d="m392 152.027344h32v16h-32zm0 0" fill="none" />
  <path d="m328 152.027344h32v16h-32zm0 0" fill="none" />
  <path d="m496 272.027344h-16v-112h-16v-112h-24v-48.0000002h-192v48.0000002h-24v112h-16v112h-32v-88h16v-48h-16v-32h-24v-32h-32v-32h-48v32h-32v32h-24v32h-16v48h16v88h-16v112h496zm-320 64h-160v-16h160zm16-48h112v80h-112zm192-16h-80v-32h80zm-64 48h160v16h-160zm0-16v-16h160v16zm-56-288h160v32h-160zm-24 48h208v96h-16v-64h-48v64h-16v-64h-48v64h-16v-64h-48v64h-16zm176 96h-16v-48h16zm-64 0h-16v-48h16zm-64 0h-16v-48h16zm176 16v16h-240v-16zm-240 32h240v64h-32v-48h-16v48h-16v-48h-112v48h-16v-48h-16v48h-32zm-136-152h16v16h-16zm-32 32h80v16h-80zm-24 32h128v16h-128zm-16 32h160v16h-160zm16 32h128v88h-32v-48h16v-16h-96v16h16v48h-32zm80 40v48h-32v-48zm64 64v16h-160v-16zm-160 64h160v16h-160zm304 16v-16h160v16zm0 0" />
  <path d="m185.574219 437.804688c2.808593-2.679688 3.816406-3.535157 6.488281-3.535157v-16c-9.222656 0-14.238281 4.804688-17.550781 7.992188-2.808594 2.679687-3.816407 3.535156-6.488281 3.535156-2.671876 0-3.679688-.847656-6.488282-3.535156-3.320312-3.1875-8.328125-7.992188-17.550781-7.992188-9.214844 0-14.222656 4.804688-17.542969 7.992188-2.792968 2.679687-3.800781 3.527343-6.457031 3.527343s-3.664063-.847656-6.457031-3.527343c-3.320313-3.1875-8.320313-7.992188-17.535156-7.992188-9.214844 0-14.222657 4.804688-17.535157 7.992188-2.792969 2.679687-3.800781 3.527343-6.457031 3.527343-2.640625 0-3.648438-.847656-6.433594-3.527343-3.308594-3.1875-8.308594-8-17.527344-8-9.214843 0-14.222656 4.804687-17.535156 7.992187-2.792968 2.679688-3.800781 3.527344-6.457031 3.527344s-3.664063-.847656-6.453125-3.527344c-3.3125-3.1875-8.320312-7.992187-17.5390625-7.992187v16c2.6484375 0 3.6640625.847656 6.4492185 3.527343 3.3125 3.183594 8.320313 7.992188 17.535156 7.992188 9.21875 0 14.226563-4.808594 17.535157-7.992188 2.792969-2.679687 3.800781-3.527343 6.457031-3.527343 2.640625 0 3.648438.847656 6.433594 3.527343 3.3125 3.183594 8.3125 8 17.527344 8 9.214843 0 14.222656-4.808593 17.535156-7.992187 2.792968-2.679687 3.800781-3.527344 6.449218-3.527344 2.65625 0 3.664063.847657 6.457032 3.527344 3.320312 3.183594 8.328125 7.992187 17.542968 7.992187 9.214844 0 14.222657-4.808593 17.535157-7.992187 2.792969-2.679687 3.800781-3.527344 6.457031-3.527344 2.664062 0 3.679688.847657 6.488281 3.535157 3.320313 3.183593 8.328125 7.992187 17.550781 7.992187 9.222657 0 14.25-4.808594 17.566407-7.992187zm0 0" />
  <path d="m320.015625 480.027344c-2.664063 0-3.679687-.847656-6.488281-3.535156-3.320313-3.175782-8.335938-7.984376-17.550782-7.984376-9.214843 0-14.222656 4.808594-17.535156 7.992188-2.792968 2.679688-3.800781 3.527344-6.457031 3.527344s-3.664063-.847656-6.464844-3.527344c-3.3125-3.175781-8.320312-7.992188-17.535156-7.992188s-14.222656 4.808594-17.535156 7.992188c-2.785157 2.679688-3.792969 3.527344-6.449219 3.527344-2.640625 0-3.648438-.847656-6.441406-3.527344-3.3125-3.183594-8.3125-7.992188-17.519532-7.992188-9.214843 0-14.222656 4.808594-17.535156 7.992188-2.792968 2.679688-3.808594 3.527344-6.457031 3.527344s-3.664063-.847656-6.453125-3.527344c-3.3125-3.175781-8.320312-7.992188-17.539062-7.992188v16c2.648437 0 3.664062.847657 6.449218 3.527344 3.320313 3.183594 8.328125 7.992188 17.542969 7.992188 9.21875 0 14.226563-4.808594 17.539063-7.992188 2.789062-2.679687 3.796874-3.527344 6.453124-3.527344 2.640626 0 3.648438.847657 6.441407 3.527344 3.304687 3.183594 8.3125 7.992188 17.519531 7.992188 9.214844 0 14.222656-4.808594 17.535156-7.992188 2.792969-2.679687 3.800782-3.527344 6.449219-3.527344 2.65625 0 3.664063.847657 6.457031 3.527344 3.320313 3.183594 8.328125 7.992188 17.542969 7.992188s14.222656-4.808594 17.535156-7.992188c2.800781-2.679687 3.808594-3.527344 6.464844-3.527344 2.664063 0 3.679687.847657 6.488281 3.535157 3.3125 3.175781 8.328125 7.984375 17.542969 7.984375s14.242187-4.808594 17.550781-7.984375c2.800782-2.679688 3.816406-3.535157 6.488282-3.535157v-16c-9.222657 0-14.238282 4.808594-17.550782 7.984376-2.808594 2.6875-3.816406 3.535156-6.488281 3.535156zm0 0" />
  <path d="m478.503906 428.492188c-2.808594 2.6875-3.816406 3.535156-6.488281 3.535156s-3.679687-.847656-6.488281-3.535156c-3.320313-3.175782-8.335938-7.984376-17.550782-7.984376-9.214843 0-14.222656 4.808594-17.535156 7.992188-2.792968 2.679688-3.800781 3.527344-6.457031 3.527344s-3.664063-.847656-6.464844-3.527344c-3.3125-3.175781-8.320312-7.992188-17.535156-7.992188s-14.222656 4.808594-17.535156 7.992188c-2.785157 2.679688-3.792969 3.527344-6.449219 3.527344-2.640625 0-3.648438-.847656-6.441406-3.527344-3.3125-3.183594-8.3125-7.992188-17.519532-7.992188-9.214843 0-14.222656 4.808594-17.535156 7.992188-2.792968 2.679688-3.808594 3.527344-6.457031 3.527344s-3.664063-.847656-6.453125-3.527344c-3.3125-3.175781-8.320312-7.992188-17.539062-7.992188v16c2.648437 0 3.664062.847657 6.449218 3.527344 3.320313 3.183594 8.328125 7.992188 17.542969 7.992188 9.21875 0 14.226563-4.808594 17.539063-7.992188 2.789062-2.679687 3.796874-3.527344 6.453124-3.527344 2.640626 0 3.648438.847657 6.441407 3.527344 3.304687 3.183594 8.3125 7.992188 17.519531 7.992188 9.214844 0 14.222656-4.808594 17.535156-7.992188 2.792969-2.679687 3.800782-3.527344 6.449219-3.527344 2.65625 0 3.664063.847657 6.457031 3.527344 3.320313 3.183594 8.328125 7.992188 17.542969 7.992188s14.222656-4.808594 17.535156-7.992188c2.800781-2.679687 3.808594-3.527344 6.464844-3.527344 2.664063 0 3.679687.847657 6.488281 3.535157 3.3125 3.175781 8.328125 7.984375 17.542969 7.984375s14.242187-4.808594 17.550781-7.984375c2.800782-2.679688 3.816406-3.535157 6.488282-3.535157v-16c-9.222657 0-14.230469 4.808594-17.550782 7.984376zm0 0" />
</svg>