<svg height="30pt" viewBox="-18 0 511 512" width="512pt" xmlns="http://www.w3.org/2000/svg">
    <path d="m467.867188 168.011719c0 88.652343-71.863282 160.515625-160.515626 160.515625-30.351562 0-58.738281-8.421875-82.941406-23.054688-46.496094-28.121094-77.574218-79.160156-77.574218-137.460937 0-10.4375.992187-20.644531 2.90625-30.527344 14.25-74.046875 79.398437-129.988281 157.609374-129.988281 88.652344 0 160.515626 71.867187 160.515626 160.515625zm0 0" fill="#fd4755" />
    <path d="m225.171875 303.933594-.765625 1.539062c-46.492188-28.121094-77.570312-79.160156-77.570312-137.460937 0-10.4375.992187-20.644531 2.90625-30.527344 9.941406.445313 17.058593 1.457031 17.445312 1.511719l4.691406.671875c10.765625 1.539062 15.109375 14.734375 7.367188 22.371093l-6.355469 6.265626c27.261719 13.433593 47.664063 33.308593 57.460937 56.550781 10.261719 24.355469 8.472657 51.691406-5.179687 79.078125zm0 0" fill="#fd4755" />
    <path d="m213.542969 504.5h-201.378907v-19.046875c0-55.609375 45.082032-100.691406 100.691407-100.691406s100.6875 45.082031 100.6875 100.691406zm0 0" fill="#79d8eb" />
    <path d="m112.992188 424.878906c-15.574219 0-28.199219-12.625-28.199219-28.199218v-21.621094h56.394531v21.621094c0 15.574218-12.621094 28.199218-28.195312 28.199218zm0 0" fill="#fff" />
    <path d="m145.21875 173.835938 19.765625-19.5s-23.265625-3.339844-44-.269532c-15.070313 2.226563-30.8125 4.152344-49.8125 14.9375-86.730469 49.222656-47.820313 122.492188-47.820313 122.492188l187.953126 5.519531c31.691406-63.570313-16.453126-107.253906-66.085938-123.179687zm0 0" fill="#ffc843" />
    <path d="m49.371094 309.566406c0 11.425782-9.261719 20.6875-20.6875 20.6875-11.425782 0-20.6875-9.261718-20.6875-20.6875 0-11.421875 9.261718-20.683594 20.6875-20.683594 11.425781 0 20.6875 9.261719 20.6875 20.683594zm0 0" fill="#e1eaf8" />
    <path d="m217.90625 309.566406c0 11.425782-9.261719 20.6875-20.683594 20.6875-11.425781 0-20.6875-9.261718-20.6875-20.6875 0-11.421875 9.261719-20.683594 20.6875-20.683594 11.421875 0 20.683594 9.261719 20.683594 20.683594zm0 0" fill="#e1eaf8" />
    <path d="m180.226562 284.5c-47.535156 10.722656-77.675781-6.3125-77.675781-6.3125v18.179688c-25.242187-2.625-44.347656-14.488282-56.800781-25.15625v49.667968c0 37.140625 30.097656 67.25 67.238281 67.25s67.238281-30.109375 67.238281-67.25zm0 0" fill="#fff" />
    <path d="m277.394531 238.667969c-6.167969 0-12.082031-2.449219-16.441406-6.808594l-34.894531-34.894531c-9.078125-9.082032-9.078125-23.800782.003906-32.882813 9.082031-9.078125 23.800781-9.082031 32.882812 0l18.449219 18.449219 78.363281-78.359375c9.082032-9.082031 23.800782-9.082031 32.882813 0s9.082031 23.800781 0 32.882813l-94.804687 94.804687c-4.359376 4.359375-10.273438 6.808594-16.441407 6.808594zm0 0" fill="#fff" />
    <path d="m467.917969 174.023438c-4.128907-.34375-7.753907 2.722656-8.097657 6.851562-6.539062 78.589844-73.511718 140.152344-152.472656 140.152344-30.660156 0-60.242187-9.035156-85.542968-26.128906-.273438-.179688-.554688-.335938-.835938-.480469-.039062-.058594-.074219-.117188-.113281-.175781 10.203125-23.59375 10.839843-46.070313 1.871093-66.871094-10.199218-23.652344-33.617187-44.230469-63.792968-56.527344l11.160156-11.011719c1.621094-1.597656 2.558594-3.820312 2.367188-6.085937-.304688-3.585938-3.015626-6.34375-6.414063-6.832032-.390625-.054687-4.265625-.597656-10.117187-1.046874 10.835937-74.890626 75.222656-130.867188 151.421874-130.867188 78.609376 0 144.03125 58.875 152.175782 136.945312.402344 3.855469 3.65625 6.722657 7.449218 6.722657 1.140626 0 2.335938-.253907 3.507813-.886719 2.75-1.484375 4.257813-4.585938 3.929687-7.691406-4.347656-40.957032-23.609374-78.800782-54.257812-106.585938-30.941406-28.054687-71.003906-43.503906-112.804688-43.503906-84.191406 0-155.25 62.25-166.476562 145.269531-6.636719-.011719-13.921875.332031-20.984375 1.378907l-1.992187.292968c-8.964844 1.308594-18.230469 2.664063-28.496094 5.921875-3.640625 1.15625-6.035156 4.84375-5.3125 8.59375.863281 4.511719 5.417968 7.121094 9.65625 5.765625 9.175781-2.933594 17.894531-4.207031 26.324218-5.441406l2.011719-.292969c8.871094-1.316406 18.347657-1.375 26.039063-1.046875l-8.011719 7.90625c-1.480469 1.460938-2.402344 3.4375-2.390625 5.515625.027344 3.324219 2.175781 6.140625 5.214844 7.117188 31.574218 10.125 56.257812 29.6875 66.019531 52.332031 6.714844 15.570312 6.667969 32.554688-.097656 50.589844-2.089844-.953125-4.316407-1.65625-6.644531-2.070313.359374-1.925781-.039063-3.929687-1.152344-5.574219l-18.472656-27.289062c-2.300782-3.402344-6.929688-4.59375-10.394532-2.394531-3.589844 2.277343-4.566406 7.046875-2.203125 10.542969l12.882813 19.03125c-46.296875 11.851562-76.332032-4.328126-76.625-4.492188-2.8125-1.589844-6.390625-1.226562-8.851563 1.082031-1.542969 1.449219-2.339843 3.535157-2.339843 5.65625v9.261719c-19.277344-3.832031-34.1875-13.363281-44.402344-22.117188-.0625-.054687-.128906-.113281-.195313-.167968-3.871093-3.332032-7.0625-6.550782-9.550781-9.285156-2.742188-3.019532-7.449219-3.535157-10.566406-.910157-3.265625 2.746094-3.578125 7.628907-.742188 10.769531 2.332032 2.578126 5.222656 5.539063 8.65625 8.648438v8.46875c-3.03125-1.09375-6.261718-1.683594-9.570312-1.683594-.492188 0-.984375.011719-1.46875.039063-6.371094-17.628907-16.359375-64.703125 39.527344-100.945313 3.476562-2.257812 4.464843-6.898437 2.210937-10.375-2.25-3.476562-6.894531-4.464844-10.371094-2.210937-38.59375 25.027343-49.046875 55.15625-51.019531 76.027343-1.6875 17.863282 2.113281 33.007813 5.417969 42.257813-7.519531 5.066406-12.480469 13.664063-12.480469 23.398437 0 15.539063 12.640625 28.179688 28.179688 28.179688 3.84375 0 7.578124-.792969 11.015624-2.253906 4.113282 20.679687 16.785157 38.308594 34.15625 49.03125-18.492187 7.183594-34.972656 19.503906-47.074218 35.367187-14.46875 18.96875-22.117188 41.640625-22.117188 65.558594v19.046875c0 4.140625 3.359375 7.5 7.5 7.5h201.382813c4.140625 0 7.5-3.359375 7.5-7.5v-19.046875c0-15.40625-3.175781-30.289063-9.433594-44.238281-1.570313-3.503906-5.5-5.484375-9.164063-4.332032-4.378906 1.375-6.449218 6.199219-4.617187 10.253907 5.449219 12.066406 8.214844 24.957031 8.214844 38.316406v11.546875h-18.316407v-22.441406c0-4.105469-3.164062-7.6875-7.269531-7.8125-4.246093-.125-7.730469 3.28125-7.730469 7.5v22.753906h-119.472656v-22.441406c0-4.105469-3.164062-7.6875-7.269531-7.8125-4.25-.125-7.730469 3.28125-7.730469 7.5v22.753906h-18.589844v-11.546875c0-37.867187 23.300782-71.976563 57.734376-86.1875 4.535156-2.203125 14.894531-6.574219 14.894531-6.574219 6.578125 1.898438 13.515625 2.9375 20.699219 2.9375 7.179687 0 14.117187-1.039062 20.695312-2.941406 0 0 9.160156 3.976562 14.890625 6.671875 12.746094 5.296875 24.21875 13.398437 33.554687 23.765625 1.480469 1.648438 3.523438 2.484375 5.578126 2.484375 1.792968 0 3.597656-.644531 5.035156-1.945313 3.058594-2.769531 3.089844-7.753906.324218-10.808593-11.355468-12.535157-25.417968-22.195313-41.039062-28.269531 17.414062-10.710938 30.121094-28.359376 34.25-49.066407 3.417969 1.445313 7.128906 2.226563 10.945312 2.226563 13.863282 0 25.414063-10.070313 27.742188-23.277344 25.066406 14.136719 53.285156 21.554688 82.382812 21.554688 42.417969 0 82.914063-15.851563 114.035157-44.632813 30.945312-28.613281 49.902343-67.421875 53.386719-109.273437.339843-4.125-2.730469-7.75-6.855469-8.09375zm-429.664063 144.578124c-2.472656 2.617188-5.914062 4.148438-9.570312 4.148438-7.269532 0-13.179688-5.914062-13.179688-13.179688 0-5.910156 3.898438-10.921874 9.261719-12.597656h.007813c1.238281-.386718 2.546874-.59375 3.910156-.59375 3.65625 0 7.097656 1.53125 9.570312 4.148438zm134.472656 2.277344c0 32.945313-26.796874 59.75-59.738281 59.75-32.9375 0-59.738281-26.800781-59.738281-59.75v-23.027344c0-.007812 0-.011718 0-.019531v-11.597656c12.527344 8.242187 28.757812 15.535156 48.53125 17.589844.257812.027343.515625.039062.773438.039062 1.847656 0 3.636718-.679687 5.023437-1.929687 1.578125-1.421875 2.476563-3.445313 2.476563-5.570313v-6.921875c12.289062 4.164063 34.101562 8.863282 62.671874 4.164063zm24.496094 1.871094c-3.617187 0-7.027344-1.5-9.496094-4.066406v-18.234375c2.46875-2.570313 5.882813-4.070313 9.496094-4.070313 7.269532 0 13.179688 5.917969 13.179688 13.191406 0 7.265626-5.910156 13.179688-13.179688 13.179688zm0 0" fill="#434c54" />
    <g fill="#969ba1">
        <path d="m85.433594 311.414062c-4.140625 0-7.5 3.359376-7.5 7.5v1.785157c0 4.140625 3.359375 7.5 7.5 7.5s7.5-3.359375 7.5-7.5v-1.785157c0-4.140624-3.359375-7.5-7.5-7.5zm0 0" />
        <path d="m142.164062 311.414062c-4.140624 0-7.5 3.359376-7.5 7.5v1.785157c0 4.140625 3.359376 7.5 7.5 7.5 4.140626 0 7.5-3.359375 7.5-7.5v-1.785157c0-4.140624-3.355468-7.5-7.5-7.5zm0 0" />
        <path d="m132.519531 349.773438c-2.492187-3.308594-7.195312-3.972657-10.503906-1.480469-3.585937 2.703125-6.851563 3.519531-9.582031 3.449219-2.730469.070312-5.996094-.746094-9.585938-3.449219-3.308594-2.492188-8.011718-1.828125-10.5 1.480469-2.492187 3.308593-1.832031 8.011718 1.480469 10.503906 6.3125 4.753906 12.546875 6.464844 18.117187 6.464844.164063 0 .324219-.011719.488282-.015626.160156.003907.320312.015626.484375.015626 5.574219 0 11.804687-1.710938 18.121093-6.464844 3.308594-2.492188 3.972657-7.195313 1.480469-10.503906zm0 0" />
    </g>
</svg>